<svg xmlns="http://www.w3.org/2000/svg" xmlns:xlink="http://www.w3.org/1999/xlink" width="28" height="19" viewBox="0 0 28 19">
    <defs>
        <path id="a" d="M0 0h32v23H0z"/>
    </defs>
    <g fill="none" fill-rule="evenodd" transform="translate(-2 -2)">
        <mask id="b" fill="#fff">
            <use xlink:href="#a"/>
        </mask>
        <g mask="url(#b)">
            <g fill-rule="nonzero" transform="translate(2 2)">
                <path fill="#EB141D" d="M0 16.263c0 1.158.939 2.097 2.097 2.097h23.806A2.097 2.097 0 0 0 28 16.263v-2.49H0v2.49z"/>
                <path fill="#FFD906" d="M25.903.015H2.097A2.097 2.097 0 0 0 0 2.112v7.075h28V2.112A2.097 2.097 0 0 0 25.903.015z"/>
                <path fill="#049" d="M0 9.188h28v4.586H0z"/>
                <path fill="#FFE15A" d="M13.496 9.458l3.526-3.022v4.374a1.335 1.335 0 0 1-2.227.992l-1.299-1.168V9.458z"/>
                <path fill="#FF4B55" d="M15.356 11.178l-1.02-.918V8.739l1.847-1.583v3.655a.496.496 0 0 1-.827.367z"/>
                <path fill="#41479B" d="M14.84 8.307v1.73l.84.757V7.588l.503-.432v3.654a.496.496 0 0 1-.827.368l-1.02-.918V8.739l.504-.432z"/>
                <path fill="#FFE15A" d="M14.504 9.458l-3.526-3.022v4.374a1.335 1.335 0 0 0 2.227.992l1.299-1.168V9.458z"/>
                <path fill="#FF4B55" d="M12.644 11.178l1.02-.918V8.739l-1.847-1.583v3.655a.496.496 0 0 0 .827.367z"/>
                <g fill="#41479B">
                    <path d="M13.16 8.307v1.73l-.84.757V7.588l-.503-.432v3.654a.496.496 0 0 0 .827.368l1.02-.918V8.739l-.504-.432zM16.9 6.45h1v1.446h-1z"/>
                    <path d="M10.856 6.45h1v1.446h-1z"/>
                </g>
                <g fill="#5A4646">
                    <path d="M13.496 5.764s.336-1.595-.84-1.385c-1.175.21-1.175.546-2.518 1.217 0 0 1.511.336 2.183.168 0 0 .504.672 1.007.84h.504l-.336-.84zM14.504 5.764s-.336-1.595.84-1.385c1.175.21 1.175.546 2.518 1.217 0 0-1.511.336-2.183.168 0 0-.504.672-1.007.84h-.504l.336-.84z"/>
                    <path d="M14.504 6.604h-1.008v-.846c0-.275.223-.498.498-.498h.012c.275 0 .498.223.498.498v.846z"/>
                </g>
                <circle cx="14" cy="5.764" r="1" fill="#E6E1CD"/>
                <path fill="#FFD0AF" d="M13.28 5.547l.63.338a.136.136 0 0 0 .161-.217l-.407-.407h-.098a.287.287 0 0 0-.287.286z"/>
                <path fill="#FFAF94" d="M13.498 5.76h-.505l.22-.385c.042-.073.103-.114.167-.114h.284v.253c0 .136-.074.247-.166.247z"/>
                <g fill="#8CB400">
                    <path d="M15.432 6.604a.474.474 0 0 1-.082-.467.468.468 0 0 1 .544.558c.033.057.074.13.12.217.002-.012.001-.025.005-.037a.39.39 0 0 1 .28-.271.385.385 0 0 1-.132.629c.042.097.084.2.123.311.002-.006.002-.013.005-.02a.39.39 0 0 1 .309-.238.386.386 0 0 1-.207.612c.059.23.098.475.098.721h-.168c0-.214-.033-.43-.083-.635a.382.382 0 0 1-.504-.375.387.387 0 0 1 .387.009l.012.01a4.57 4.57 0 0 0-.114-.294.382.382 0 0 1-.548-.314.387.387 0 0 1 .384-.034 4.932 4.932 0 0 0-.12-.219.47.47 0 0 1-.309-.163zM12.568 6.604a.474.474 0 0 0 .082-.467.468.468 0 0 0-.544.558c-.033.057-.074.13-.12.217-.002-.012-.001-.025-.005-.037a.39.39 0 0 0-.28-.271.385.385 0 0 0 .132.629 4.75 4.75 0 0 0-.123.311c-.002-.006-.002-.013-.005-.02a.39.39 0 0 0-.309-.238.386.386 0 0 0 .207.612c-.059.23-.097.475-.097.721h.167c0-.214.033-.43.083-.635a.382.382 0 0 0 .504-.375.387.387 0 0 0-.387.009l-.012.01a4.57 4.57 0 0 1 .114-.294.382.382 0 0 0 .548-.314.387.387 0 0 0-.384-.034c.046-.089.088-.163.12-.219a.47.47 0 0 0 .309-.163z"/>
                </g>
                <path fill="#FFE15A" d="M14 10.298l-3.526-3.022v4.374a1.335 1.335 0 0 0 2.228.992L14 11.473v-1.175z"/>
                <path fill="#FF4B55" d="M12.14 12.018l1.02-.919V9.58l-1.847-1.584V11.65a.496.496 0 0 0 .827.368z"/>
                <path fill="#41479B" d="M12.657 9.147v1.729l-.84.758V8.427l-.504-.432V11.65a.496.496 0 0 0 .827.368l1.02-.918V9.578l-.503-.431z"/>
                <path fill="#FFE15A" d="M14 10.298l3.526-3.022v4.374a1.335 1.335 0 0 1-2.228.992L14 11.473v-1.175z"/>
                <path fill="#FF4B55" d="M15.86 12.018l-1.02-.919V9.58l1.847-1.584V11.65a.496.496 0 0 1-.827.368z"/>
                <path fill="#41479B" d="M15.343 9.147v1.729l.84.758V8.427l.504-.432V11.65a.496.496 0 0 1-.827.368l-1.02-.918V9.578l.503-.431z"/>
                <ellipse cx="14" cy="9.122" fill="#69C3FF" rx="1.679" ry="2.519"/>
                <path fill="#009B64" d="M12.489 9.794h3.022l.168-.671-.765.127a.526.526 0 0 1-.429-.12l-.868-.744a.429.429 0 0 0-.582.023l-.546.546v.84z"/>
                <path fill="#F5F5F5" d="M13.84 9.01l.29-.185-.514-.439a.429.429 0 0 0-.581.022l-.546.547v.168l.84-.168.148.074a.37.37 0 0 0 .364-.02z"/>
                <path fill="#5AA0E6" d="M12.489 9.794l.168 1.008.84.84H14l.672-.169.671-.671.168-1.008z"/>
                <path fill="#FFC88C" d="M14 11.81c-1.018 0-1.847-1.206-1.847-2.687 0-1.482.829-2.687 1.847-2.687s1.847 1.205 1.847 2.687c0 1.481-.829 2.686-1.847 2.686zm0-5.038c-.833 0-1.511 1.054-1.511 2.35 0 1.297.678 2.351 1.511 2.351.833 0 1.511-1.054 1.511-2.35 0-1.297-.678-2.351-1.511-2.351z"/>
                <g fill="#E1E1E1">
                    <path d="M12.815 11.626a.73.73 0 0 0-.587-.32.73.73 0 0 0-.588.32.81.81 0 0 1 .53.519.987.987 0 0 1 .058.336c0-.415.25-.761.587-.855z"/>
                    <path d="M12.6 12.158s-.025.336-.245.494l-.01-.006c-.22-.158-.245-.494-.245-.494l.5.006z"/>
                </g>
                <path fill="#966446" d="M16.1 12.561h-4.2c-.046 0-.083-.11-.083-.247v-.006c0-.136.037-.247.083-.247h4.2c.046 0 .083.11.083.247v.006c0 .137-.037.247-.083.247z"/>
                <path fill="#BE915A" d="M14.844 12.48h-1.688a.332.332 0 0 1-.332-.33v-.01c0-.182.149-.33.332-.33h1.688c.183 0 .331.148.331.33v.01a.332.332 0 0 1-.331.33z"/>
                <path fill="#B9B9B9" d="M12.489 12.061H11.9c-.046 0-.084.112-.084.25s.038.25.084.25h.588v-.5z"/>
                <path fill="#FF4B55" d="M14 12.48v1.535l-.672-.19.336-1.344z"/>
                <path fill="#41479B" d="M13.832 12.48l-.336 1.176-.671-.168.503-1.007z"/>
                <path fill="#FFE15A" d="M13.16 12.48l-.503.673.503.167.336-.84z"/>
                <path fill="#FF4B55" d="M14 12.48v1.535l.672-.19-.336-1.344z"/>
                <path fill="#41479B" d="M14.168 12.48l.336 1.176.671-.168-.503-1.007z"/>
                <path fill="#FFE15A" d="M14.84 12.48l.503.673-.503.167-.336-.84z"/>
                <g fill="#41479B">
                    <path d="M10.853 8.722l-.5-.244V7.275h.5zM17.903 8.478l-.5.244V7.275h.5z"/>
                </g>
            </g>
        </g>
    </g>
</svg>
