<svg xmlns="http://www.w3.org/2000/svg" xmlns:xlink="http://www.w3.org/1999/xlink" width="28" height="19" viewBox="0 0 28 19">
    <defs>
        <path id="a" d="M0 0h32v22H0z"/>
    </defs>
    <g fill="none" fill-rule="evenodd" transform="translate(-2 -2)">
        <mask id="b" fill="#fff">
            <use xlink:href="#a"/>
        </mask>
        <g mask="url(#b)">
            <g fill-rule="nonzero" transform="translate(2 2)">
                <g fill="#75AADB">
                    <path d="M25.903.015H2.097A2.097 2.097 0 0 0 0 2.112V6.13h28V2.112A2.097 2.097 0 0 0 25.903.015zM0 16.263c0 1.158.939 2.097 2.097 2.097h23.806A2.097 2.097 0 0 0 28 16.263v-4.018H0v4.018z"/>
                </g>
                <path fill="#F5F5F5" d="M0 6.13h28v6.115H0z"/>
                <path fill="#F09146" d="M16.414 9.067h-1.738a.814.814 0 0 0 .08-.072.438.438 0 0 1 .167-.111c.09-.038.137-.038.196-.04a.672.672 0 0 0 .287-.056c.132-.055.19-.112.241-.162a.443.443 0 0 1 .166-.111.434.434 0 0 1 .196-.039c.072 0 .153-.001.286-.057l-.093-.222a.434.434 0 0 1-.196.038c-.071.001-.153.002-.285.057-.133.055-.191.111-.242.161a.438.438 0 0 1-.166.112c-.09.037-.137.038-.197.039a.667.667 0 0 0-.286.057c-.133.054-.19.112-.242.161a.45.45 0 0 1-.162.11l1.366-1.366-.17-.17-1.23 1.229a.861.861 0 0 0 .007-.109c0-.06.001-.106.038-.196.038-.09.07-.124.112-.166a.672.672 0 0 0 .163-.243.671.671 0 0 0 .056-.286c0-.059.001-.106.038-.196.038-.09.07-.123.112-.165.05-.052.107-.11.162-.242l-.223-.092a.442.442 0 0 1-.112.165c-.05.052-.107.11-.162.242a.671.671 0 0 0-.056.286c0 .06-.001.106-.038.196-.038.09-.07.123-.112.166a.672.672 0 0 0-.163.242c-.054.133-.055.215-.056.287a.444.444 0 0 1-.037.191V6.774h-.242v1.738a.864.864 0 0 0-.071-.081.443.443 0 0 1-.112-.166.445.445 0 0 1-.039-.197.67.67 0 0 0-.056-.286c-.055-.133-.112-.19-.162-.242a.442.442 0 0 1-.112-.166c-.037-.09-.037-.136-.038-.196a.667.667 0 0 0-.057-.285l-.223.092c.037.09.038.137.039.196a.67.67 0 0 0 .056.286c.055.132.112.19.162.241a.442.442 0 0 1 .112.166c.037.09.038.137.038.197a.67.67 0 0 0 .057.286c.055.133.112.191.162.243.041.041.073.076.11.161l-1.366-1.366-.171.171 1.364 1.364a.468.468 0 0 1-.15-.103c-.052-.05-.11-.108-.243-.163a.681.681 0 0 0-.287-.057.44.44 0 0 1-.197-.039c-.091-.037-.125-.07-.168-.112-.052-.05-.11-.107-.244-.163-.133-.055-.215-.056-.287-.057a.45.45 0 0 1-.198-.04l-.093.224c.134.055.215.056.287.057a.45.45 0 0 1 .199.04c.09.037.125.07.168.112.051.05.11.107.243.162.134.056.215.057.287.058.06 0 .107 0 .197.039.09.037.124.07.167.111a.885.885 0 0 0 .076.068h-1.743v.241h1.928a.462.462 0 0 1-.178.034.673.673 0 0 0-.287.056c-.133.056-.191.112-.243.163-.043.041-.077.074-.167.112a.45.45 0 0 1-.198.04c-.072 0-.154.001-.287.056a.679.679 0 0 0-.244.163c-.043.042-.077.075-.168.112l.093.224a.679.679 0 0 0 .243-.163c.043-.042.077-.075.168-.112a.45.45 0 0 1 .198-.04c.072 0 .154-.002.288-.057a.675.675 0 0 0 .242-.163.445.445 0 0 1 .168-.111c.09-.038.137-.039.197-.04.03 0 .065-.002.102-.006l-1.233 1.233.17.17 1.364-1.363a.463.463 0 0 1-.103.15.677.677 0 0 0-.162.243.672.672 0 0 0-.057.286c-.001.06-.002.107-.04.198-.037.09-.07.125-.112.168a.677.677 0 0 0-.162.243c-.056.134-.057.216-.057.288-.001.06-.002.107-.04.198l.223.092c.056-.134.057-.215.058-.287 0-.06.001-.108.039-.198.037-.091.07-.125.112-.168a.677.677 0 0 0 .163-.244.672.672 0 0 0 .057-.286c0-.06.001-.107.039-.198.037-.09.07-.124.112-.167a.892.892 0 0 0 .067-.076V11.6h.242V9.673a.464.464 0 0 1 .033.179.67.67 0 0 0 .057.286.67.67 0 0 0 .162.243c.042.043.075.077.112.168.038.09.038.138.04.197 0 .073.001.154.057.288a.676.676 0 0 0 .162.243c.042.043.075.077.113.168l.223-.092a.676.676 0 0 0-.163-.244c-.042-.043-.075-.077-.112-.168-.038-.09-.039-.138-.04-.198 0-.072-.001-.153-.057-.287a.673.673 0 0 0-.162-.243c-.042-.043-.075-.077-.112-.167-.038-.09-.038-.138-.04-.198a.918.918 0 0 0-.006-.102l1.233 1.233.171-.17-1.23-1.23c.04.006.076.007.108.008a.44.44 0 0 1 .197.038c.09.038.124.07.166.112.052.05.11.107.243.162a.668.668 0 0 0 .286.057c.06 0 .106 0 .196.038.09.037.123.07.165.111.051.05.11.107.242.163l.093-.224c-.09-.037-.123-.07-.166-.111-.051-.05-.11-.107-.242-.162a.668.668 0 0 0-.286-.056c-.06-.001-.106-.002-.196-.039a.439.439 0 0 1-.166-.112c-.051-.05-.11-.107-.243-.162a.66.66 0 0 0-.286-.057.453.453 0 0 1-.193-.037h1.934v-.241z"/>
                <circle cx="14" cy="9.188" r="1.207" fill="#FFE15A"/>
            </g>
        </g>
    </g>
</svg>
