<svg xmlns="http://www.w3.org/2000/svg" xmlns:xlink="http://www.w3.org/1999/xlink" width="28" height="19" viewBox="0 0 28 19">
    <defs>
        <path id="a" d="M0 0h32v22H0z"/>
    </defs>
    <g fill="none" fill-rule="evenodd" transform="translate(-2 -2)">
        <mask id="b" fill="#fff">
            <use xlink:href="#a"/>
        </mask>
        <g mask="url(#b)">
            <g fill-rule="nonzero" transform="translate(2 2)">
                <path fill="#009C3B" d="M25.903 0H2.097A2.1 2.1 0 0 0 0 2.104v14.201a2.1 2.1 0 0 0 2.097 2.104h23.806A2.1 2.1 0 0 0 28 16.305v-14.2A2.1 2.1 0 0 0 25.903 0z"/>
                <path fill="#FFDF00" d="M13.694 2.606L3.538 8.793a.482.482 0 0 0 0 .824l10.156 6.187a.482.482 0 0 0 .501 0l10.156-6.187a.482.482 0 0 0 0-.824L14.195 2.606a.482.482 0 0 0-.5 0z"/>
                <circle cx="14" cy="9.15" r="3.858" fill="#002776"/>
                <g fill="#F5F5F5">
                    <path d="M10.708 7.213c-.18.308-.32.642-.413.997 2.127-.163 5.274.441 7.276 2.412.131-.338.217-.699.25-1.076-2.068-1.765-4.927-2.393-7.113-2.333zM14.16 10.533l.102.31.323.003c.042 0 .059.055.025.08l-.26.195.098.312c.012.04-.033.074-.067.05l-.263-.191-.262.19c-.034.025-.08-.009-.067-.05l.097-.311-.26-.195c-.033-.025-.016-.08.026-.08l.323-.002.102-.311c.013-.04.07-.04.083 0zM15.448 11.34l.05.156.158.002c.02 0 .03.027.013.04l-.128.099.048.158c.006.02-.016.037-.033.025l-.129-.097-.128.097c-.017.012-.04-.005-.033-.025l.048-.158-.128-.099c-.016-.013-.008-.04.013-.04l.158-.002.05-.157a.021.021 0 0 1 .04 0zM13.65 9.945l.05.157.159.002c.02 0 .029.027.012.04l-.127.098.047.159c.007.02-.016.037-.032.024l-.13-.096-.128.096c-.017.013-.039-.004-.033-.024l.048-.159-.127-.098c-.017-.013-.008-.04.012-.04l.158-.002.05-.157a.021.021 0 0 1 .041 0zM11.216 9.783l.05.157.158.001c.02 0 .03.028.013.04l-.128.1.048.157c.006.02-.016.038-.033.025l-.129-.096-.128.096c-.017.013-.04-.004-.033-.025l.048-.158-.128-.098c-.016-.013-.008-.04.013-.04l.158-.002.05-.157a.021.021 0 0 1 .04 0zM13.252 11.293l.05.157.159.002c.02 0 .029.027.012.04l-.127.098.048.159c.006.02-.016.037-.033.024l-.129-.096-.129.096c-.017.013-.039-.004-.033-.024l.048-.159-.127-.098c-.017-.013-.008-.04.012-.04l.159-.002.05-.157a.021.021 0 0 1 .04 0zM12.175 9.692l.05.157.159.001c.02 0 .029.028.012.04l-.127.1.047.157c.007.02-.016.038-.032.025l-.13-.096-.128.096c-.017.013-.039-.004-.033-.025l.048-.158-.128-.098c-.016-.013-.008-.04.013-.04l.158-.002.05-.157a.021.021 0 0 1 .041 0zM15.54 7.432l.05.157.158.001c.021 0 .03.028.013.04l-.127.099.047.158c.007.02-.016.037-.032.025l-.13-.097-.128.097c-.017.012-.04-.005-.033-.025l.048-.158-.128-.099c-.016-.012-.008-.04.013-.04l.158-.001.05-.157a.021.021 0 0 1 .041 0zM11.416 9.023l.05.157.158.001c.02 0 .03.028.013.04l-.128.1.048.157c.006.02-.016.038-.033.025l-.129-.096-.129.096c-.016.013-.038-.004-.032-.025l.047-.158-.127-.098c-.016-.013-.008-.04.013-.04l.158-.002.05-.157a.021.021 0 0 1 .04 0zM11.888 10.56l.054.165.173.002c.022 0 .031.029.013.042l-.138.104.052.166c.006.022-.018.04-.036.026l-.14-.101-.14.101c-.018.014-.042-.004-.036-.026l.052-.166-.138-.104c-.018-.013-.009-.042.013-.042l.172-.002.055-.165a.023.023 0 0 1 .044 0zM16.2 11.377l.05.157.158.001c.021 0 .03.028.013.04l-.127.1.047.157c.007.02-.016.038-.032.025l-.13-.096-.128.096c-.017.013-.04-.004-.033-.025l.048-.158-.128-.098c-.016-.013-.008-.04.013-.04l.158-.002.05-.157a.021.021 0 0 1 .04 0zM16.526 10.579l.05.157.159.001c.02 0 .029.028.012.04l-.127.099.048.158c.006.02-.016.037-.033.025l-.129-.096-.129.096c-.016.012-.039-.004-.032-.025l.047-.158-.127-.099c-.017-.012-.008-.04.012-.04l.159-.001.05-.157a.021.021 0 0 1 .04 0z"/>
                </g>
            </g>
        </g>
    </g>
</svg>
