<svg xmlns="http://www.w3.org/2000/svg" xmlns:xlink="http://www.w3.org/1999/xlink" width="28" height="19" viewBox="0 0 28 19">
    <defs>
        <path id="a" d="M0 0h32v22H0z"/>
    </defs>
    <g fill="none" fill-rule="evenodd" transform="translate(-2 -2)">
        <mask id="b" fill="#fff">
            <use xlink:href="#a"/>
        </mask>
        <g fill-rule="nonzero" mask="url(#b)">
            <path fill="#006847" d="M4.097 2.015A2.097 2.097 0 0 0 2 4.112v14.15c0 1.159.939 2.098 2.097 2.098h7.236V2.015H4.097z"/>
            <path fill="#F5F5F5" d="M11.334 2.015h9.334V20.36h-9.334z"/>
            <path fill="#CE111E" d="M27.903 2.015h-7.236V20.36h7.236A2.097 2.097 0 0 0 30 18.263V4.112a2.097 2.097 0 0 0-2.097-2.097z"/>
            <path fill="#FFD250" d="M16.833 11.62l-.833.415v.417h.416z"/>
            <g fill="#00C3A0">
                <path d="M16.042 13.493c-.138 0-.25-.094-.25-.209v-.832c0-.115.112-.208.25-.208s.25.093.25.208v.832c0 .116-.112.209-.25.209z"/>
                <path d="M16 12.66a3.263 3.263 0 0 1-2.223-.888.208.208 0 1 1 .283-.305 2.848 2.848 0 0 0 1.94.777c.712 0 1.401-.276 1.94-.777a.208.208 0 0 1 .283.305A3.263 3.263 0 0 1 16 12.66z"/>
            </g>
            <path fill="#00AADC" d="M16 13.493c-.534 0-1.05-.156-1.495-.451l.23-.347c.752.499 1.778.499 2.53 0l.23.347a2.693 2.693 0 0 1-1.495.45z"/>
            <path fill="#732D37" d="M15.67 10.682l-.46.712-.077.234 1.197-.278z"/>
            <path fill="#AAD264" d="M14.726 11.857c-.55 0-1.21-.463-1.386-1.495l.41-.07c.146.858.674 1.149.991 1.148.097-.003.199-.036.207-.105.009-.082.011-.101-.206-.175-.119-.04-.253-.085-.347-.193-.38-.435.135-.895.382-1.116.044-.04.062-.072.058-.085-.014-.036-.096-.09-.188-.09-.264 0-.465-.149-.523-.39a.556.556 0 0 1 .271-.623l.192.37c-.051.027-.072.102-.059.155.005.022.018.072.12.072.254 0 .497.15.575.358.034.088.085.317-.168.543-.274.245-.437.428-.347.532.02.023.109.053.167.073.187.063.536.18.486.617-.031.274-.276.464-.608.473h-.027z"/>
            <path fill="#874150" d="M16.416 9.538s.417-.833-.416-1.25c0 0 2.914-.416 2.498 3.331-.273-.218-.68-.618-.824-.936l-1.258-.73v-.415z"/>
            <path fill="#732D37" d="M16 10.37l2.082 1.25-.833.415L16 10.787v-.417z"/>
            <path fill="#783C46" d="M15.167 9.121c.23 0 .417.187.417.417a.816.816 0 0 0-.154.942l.094.188c.04.079.091.15.153.212l1.156 1.156v-.576c0-.717-.167-1.423-.488-2.065a1.249 1.249 0 0 0-1.117-.69h-.06v.416z"/>
            <path fill="#FFD250" d="M15.167 8.705l-.416.416v.417s.495-.251.662-.332c.117-.055.096-.188.029-.251-.052-.05-.275-.25-.275-.25z"/>
            <path fill="#AAD264" d="M16 14.325a3.543 3.543 0 0 1-3.539-3.538h.417c0 1.721 1.4 3.122 3.122 3.122s3.122-1.4 3.122-3.122h.417A3.543 3.543 0 0 1 16 14.325z"/>
            <g fill="#FFE15A" transform="translate(12.61 11.734)">
                <circle cx=".291" cy=".287" r="1"/>
                <circle cx=".915" cy="1.285" r="1"/>
                <circle cx="1.93" cy="2.039" r="1"/>
                <circle cx="6.52" cy=".287" r="1"/>
                <circle cx="5.895" cy="1.285" r="1"/>
                <circle cx="4.881" cy="2.039" r="1"/>
            </g>
            <path fill="#FFB478" d="M16.208 13.7h-.416a.416.416 0 0 1 0-.832h.416a.416.416 0 0 1 0 .833z"/>
            <path fill="#9B4B5A" d="M17.674 10.682c.139.408.434.781.824.937C18.914 7.872 16 8.29 16 8.29c2.082 0 1.674 2.393 1.674 2.393z"/>
        </g>
    </g>
</svg>
