<svg xmlns="http://www.w3.org/2000/svg" width="30" height="38" viewBox="0 0 30 38"><g fill="none"><path fill="#3483FA" stroke="#FFF" d="M15 36.968c.917-1.528 2.48-3.526 4.78-6.214l.842-.976c.45-.518 2.936-3.358 3.561-4.085 1.199-1.393 1.961-2.338 2.402-2.994 2.062-3.07 2.915-5.431 2.915-8.317C29.5 6.737 22.988.5 15 .5S.5 6.737.5 14.382c0 2.87.837 5.177 2.917 8.32.441.666 1.207 1.62 2.4 3.01.665.774 3.259 3.735 3.56 4.082.29.333.56.645.817.946 2.323 2.705 3.887 4.7 4.806 6.228z"/><path fill="#FFF" d="M18 23h2c.6 0 1-.4 1-1v-7h1c.3 0 .6-.1.8-.3.4-.4.3-1-.1-1.4l-7-6c-.4-.3-.9-.3-1.3 0l-7 6c-.4.4-.5 1-.1 1.4.1.2.4.3.7.3h1v7c0 .6.4 1 1 1h2c.6 0 1-.4 1-1v-3h4v3c0 .6.4 1 1 1z"/></g></svg>