<svg xmlns="http://www.w3.org/2000/svg" width="28" height="19" viewBox="0 0 28 19">
    <g fill="none" fill-rule="evenodd">
        <path d="M-2-3h32v24H-2z"/>
        <g fill-rule="nonzero">
            <g fill="#F5F5F5">
                <path d="M27.517 9.188H14v8.69a.483.483 0 0 1-.483.482h12.386A2.097 2.097 0 0 0 28 16.263V8.705a.483.483 0 0 1-.483.482zM.483 9.188H14V.498c0-.267.216-.483.483-.483H2.097A2.097 2.097 0 0 0 0 2.112V9.67c0-.266.216-.482.483-.482z"/>
            </g>
            <path fill="#CD092B" d="M25.903.015h-11.42A.483.483 0 0 0 14 .498v8.69h13.517A.483.483 0 0 0 28 8.704V2.112A2.097 2.097 0 0 0 25.903.015z"/>
            <g fill="#004889">
                <path d="M14 17.877v-8.69H.483A.483.483 0 0 0 0 9.67v6.593c0 1.158.939 2.097 2.097 2.097h11.42a.483.483 0 0 0 .483-.483zM7.186 2.542l.46 1.38 1.455.012a.196.196 0 0 1 .115.353l-1.17.864.438 1.387a.196.196 0 0 1-.3.219L7 5.91l-1.183.846a.196.196 0 0 1-.301-.219l.438-1.387-1.17-.864a.196.196 0 0 1 .115-.353l1.455-.012.46-1.38a.196.196 0 0 1 .372 0z"/>
            </g>
            <path fill="#CD092B" d="M21.186 11.715l.46 1.38 1.455.01a.196.196 0 0 1 .115.355l-1.17.864.438 1.387a.196.196 0 0 1-.3.218L21 15.083l-1.183.846a.196.196 0 0 1-.301-.218l.438-1.387-1.17-.864a.196.196 0 0 1 .115-.354l1.455-.011.46-1.38a.196.196 0 0 1 .372 0z"/>
        </g>
    </g>
</svg>
