<svg xmlns="http://www.w3.org/2000/svg" xmlns:xlink="http://www.w3.org/1999/xlink" width="28" height="19" viewBox="0 0 28 19">
    <defs>
        <path id="a" d="M0 0h32v22H0z"/>
    </defs>
    <g fill="none" fill-rule="evenodd" transform="translate(-2 -2)">
        <mask id="b" fill="#fff">
            <use xlink:href="#a"/>
        </mask>
        <g fill-rule="nonzero" mask="url(#b)">
            <path fill="#FFC606" d="M27.903 2.015H4.097A2.097 2.097 0 0 0 2 4.112V8.13h28V4.112a2.097 2.097 0 0 0-2.097-2.097z"/>
            <path fill="#CA0D23" d="M2 18.263c0 1.158.939 2.097 2.097 2.097h23.806A2.097 2.097 0 0 0 30 18.263v-4.018H2v4.018z"/>
            <path fill="#001D73" d="M2 8.13h28v6.115H2z"/>
            <g fill="#F5F5F5">
                <path d="M11.742 12.363l.121.363.382.003c.05 0 .07.063.03.093l-.307.227.115.364a.052.052 0 0 1-.079.058l-.31-.222-.312.222a.052.052 0 0 1-.08-.058l.116-.364-.307-.227a.052.052 0 0 1 .03-.093l.382-.003.121-.363a.051.051 0 0 1 .098 0zM12.485 11.208l-.065.377.336.184a.052.052 0 0 1-.018.096l-.378.055-.07.375a.052.052 0 0 1-.098.014l-.169-.343-.379.049a.052.052 0 0 1-.043-.088l.274-.267-.163-.346a.052.052 0 0 1 .07-.067l.339.178.278-.263a.052.052 0 0 1 .086.046zM13.425 10.198l-.18.337.262.28a.051.051 0 0 1-.047.085l-.376-.066-.185.335a.052.052 0 0 1-.096-.018l-.053-.378-.376-.073a.052.052 0 0 1-.013-.097l.344-.167-.048-.38a.052.052 0 0 1 .089-.042l.265.275.346-.162c.045-.021.091.027.068.07zM14.556 9.57l-.264.278.177.339a.052.052 0 0 1-.068.07l-.345-.165-.268.272a.052.052 0 0 1-.088-.043l.05-.379-.341-.17a.052.052 0 0 1 .013-.097l.377-.07.056-.377a.052.052 0 0 1 .096-.017l.182.336.377-.063c.05-.008.08.05.046.087zM15.856 9.28l-.328.196.08.374a.052.052 0 0 1-.085.05l-.288-.252-.331.19a.052.052 0 0 1-.073-.064l.15-.352-.284-.256a.052.052 0 0 1 .04-.09l.38.035.156-.349a.052.052 0 0 1 .097.01l.085.372.38.04c.05.006.064.07.021.096zM20.258 12.363l-.121.363-.382.003c-.05 0-.07.063-.03.093l.307.227-.115.364a.052.052 0 0 0 .079.058l.31-.222.312.222c.04.029.094-.01.079-.058l-.115-.364.307-.227a.052.052 0 0 0-.03-.093l-.382-.003-.121-.363a.052.052 0 0 0-.098 0zM19.515 11.208l.065.377-.336.184a.052.052 0 0 0 .018.096l.378.055.07.375c.01.049.076.058.098.014l.169-.343.379.049a.052.052 0 0 0 .043-.088l-.274-.267.163-.346a.052.052 0 0 0-.07-.067l-.339.178-.278-.263a.052.052 0 0 0-.086.046zM18.575 10.198l.18.337-.262.28a.051.051 0 0 0 .047.085l.376-.066.185.335c.024.043.09.031.096-.018l.053-.378.376-.073a.052.052 0 0 0 .013-.097l-.344-.167.048-.38a.052.052 0 0 0-.089-.042l-.265.275-.346-.162a.052.052 0 0 0-.068.07zM17.444 9.57l.264.278-.177.339a.052.052 0 0 0 .068.07l.345-.165.268.272a.052.052 0 0 0 .088-.043l-.05-.379.341-.17a.052.052 0 0 0-.013-.097l-.377-.07-.056-.377a.052.052 0 0 0-.096-.017l-.182.336-.377-.063a.052.052 0 0 0-.046.087zM16.144 9.28l.328.196-.08.374a.052.052 0 0 0 .085.05l.288-.252.331.19a.052.052 0 0 0 .073-.064l-.15-.352.284-.256a.052.052 0 0 0-.04-.09l-.38.035-.156-.349a.052.052 0 0 0-.097.01l-.085.372-.38.04a.052.052 0 0 0-.021.096z"/>
            </g>
        </g>
    </g>
</svg>
